<?xml version="1.0" encoding="UTF-8"?>
<svg id="Layer_1" data-name="Layer 1" xmlns="http://www.w3.org/2000/svg" xmlns:xlink="http://www.w3.org/1999/xlink" viewBox="0 0 1400 1000">
  <defs>
    
    <linearGradient id="linear-gradient" x1="703.11" y1="225.69" x2="703.11" y2="687.22" gradientUnits="userSpaceOnUse">
      <stop offset="0" stop-color="#ea9c2d"></stop>
      <stop offset="1" stop-color="#e70000"></stop>
    </linearGradient>
    <linearGradient id="linear-gradient-2" x1="755.07" y1="225.69" x2="755.07" y2="687.22" xlink:href="#linear-gradient"></linearGradient>
    <linearGradient id="linear-gradient-3" x1="690.69" y1="225.69" x2="690.69" y2="687.22" xlink:href="#linear-gradient"></linearGradient>
  </defs>
  <g>
    <g>
      <path class="cls-5" d="m703.77,356.9c11.81.26,20.57,9.65,20.35,21.8-.21,11.56-10.2,21.25-21.55,20.93-11.32-.33-20.71-10.24-20.47-21.62.25-12.08,9.79-21.38,21.67-21.11Z"></path>
      <path class="cls-1" d="m772.73,344.05l-4.77,9.83s-15.77-6.54-21.48-22.69c-.04-.06-.06-.13-.08-.19-.08-.23-.15-.45-.23-.7-.45-1.3-.88-2.65-1.3-3.98-.17-.55-.32-1.07-.49-1.6-4.42-14.98-6.97-31.28-6.97-31.28,14.53,16.13,27.54,32.27,35.32,50.6Z"></path>
      <path class="cls-4" d="m772.73,344.05c-7.78-18.33-20.79-34.47-35.32-50.6,0,0,2.56,16.3,6.97,31.28.17.53.32,1.05.49,1.6.34,1.11.7,2.2,1.07,3.29.08.23.15.47.23.7.08.24.15.47.23.7.02.06.04.13.08.19,10.34,31.78,4.47,59.23-21.01,82.36-6.95,6.32-12.39,14.3-18.1,21.07-.29-.43-.58-.93-.88-1.45-1.32-2-4.25-5.92-9.56-10.72-7.96-6.73-16.04-13.32-24.29-19.69-18.61-14.4-19.42-38.64-1.18-53.34,9.13-7.37,19.3-13.5,28.33-20.99,16.41-13.65,22.37-33.04,17.01-52.5-9.23-32.74-51.44-45.94-51.44-45.94.96,1.28,1.86,2.54,2.84,3.76,10.64,13.46,11.9,28.06,5.15,43.57-5.49,12.63-14.72,22.4-24.36,31.93-11.26,11.15-23.06,21.93-32.95,34.23-12.71,15.79-17.61,34.47-13.5,54.79.63,3.09,1.44,6.01,2.37,8.83,10.5,29.78,48.7,47.42,48.7,47.42-12.69-16.54-23.91-33.72-24.94-55.37-1.05-22.25,10.28-42.85,25.77-53.81-1.37,2.09-2.39,3.57-3.36,5.09-12.2,19.34-13.38,39.23-2.14,59.26,3.8,6.77,8.46,13.14,13.35,19.17,18.93,23.33,30.84,49.34,32.48,79.71.49,9,1.95,17.95,3.16,28.8,1.15-3.23,1.79-4.64,2.16-6.11,4.62-18.06,12.69-34.32,24.68-48.7,11.01-13.19,21.9-26.52,32.31-40.19,12.97-16.99,22.18-35.67,23.16-57.55.68-15.02-2.2-28.4-7.46-40.79Z"></path>
    </g>
    <g>
      <path class="cls-2" d="m626.22,552.41c.39.19.78.38,1.17.56.75.35,1.51.68,2.27,1.02,34.47,15.07,64.93,4.67,64.93,4.67-19.3-8.58-27.85-29.09-27.85-29.09h0c-1.82-3.82-3.4-7.83-5.09-11.64-12.91-29.09-37.99-52.54-67.87-63.49,3.88,15.34,11.48,29.73,21.96,41.6-15.61-7.76-25.65-23.14-36.92-36.44-5.92-6.98-12.66-13.52-20.56-18.21-3.95-2.35-8.21-4.23-12.7-5.26-1.91-.44-12.15-2.5-12.61.44,25.45,19.79,31.87,55.33,50.84,81.4,10.84,14.9,25.78,26.44,42.44,34.44Z"></path>
      <path class="cls-2" d="m768.56,552.41c-.39.19-.78.38-1.17.56-.75.35-1.51.68-2.27,1.02-34.47,15.07-64.93,4.67-64.93,4.67,19.3-8.58,27.85-29.09,27.85-29.09h0c1.82-3.82,3.4-7.83,5.09-11.64,12.91-29.09,37.99-52.54,67.87-63.49-3.88,15.34-11.48,29.73-21.96,41.6,15.61-7.76,25.65-23.14,36.92-36.44,5.92-6.98,12.66-13.52,20.56-18.21,3.95-2.35,8.21-4.23,12.7-5.26,1.91-.44,12.15-2.5,12.61.44-25.45,19.79-31.87,55.33-50.84,81.4-10.84,14.9-25.78,26.44-42.44,34.44Z"></path>
    </g>
  </g>
  <g>
    <g>
      <path class="cls-2" d="m366.85,595.64h14.73v40.4h24.85v11.68h-39.58v-52.08Z"></path>
      <path class="cls-2" d="m411.26,624.51v-28.87h14.73v28.42c0,8.93,3.72,12.5,9.9,12.5s9.82-3.57,9.82-12.5v-28.42h14.51v28.87c0,15.55-9.08,24.25-24.48,24.25s-24.48-8.7-24.48-24.25Z"></path>
      <path class="cls-2" d="m517.2,647.72l-.15-27.6-13.39,22.47h-6.55l-13.32-21.72v26.86h-13.62v-52.08h12.13l18.3,30.06,17.86-30.06h12.13l.15,52.08h-13.54Z"></path>
      <path class="cls-2" d="m541.14,595.64h14.73v52.08h-14.73v-52.08Z"></path>
      <path class="cls-2" d="m615.91,595.64v52.08h-12.13l-22.99-27.75v27.75h-14.43v-52.08h12.13l22.99,27.75v-27.75h14.43Z"></path>
      <path class="cls-2" d="m661.21,637.6h-22.02l-4.09,10.12h-15.03l22.99-52.08h14.51l23.06,52.08h-15.33l-4.09-10.12Zm-4.32-10.86l-6.7-16.67-6.7,16.67h13.39Z"></path>
      <path class="cls-2" d="m697.06,621.68c0-15.85,12.13-27.08,28.64-27.08,9.6,0,17.33,3.5,22.39,9.82l-9.37,8.48c-3.27-3.94-7.29-6.1-12.28-6.1-8.55,0-14.51,5.95-14.51,14.88s5.95,14.88,14.51,14.88c4.98,0,9-2.16,12.28-6.1l9.37,8.48c-5.06,6.32-12.8,9.82-22.39,9.82-16.52,0-28.64-11.23-28.64-27.08Z"></path>
      <path class="cls-2" d="m754.63,595.64h14.73v40.4h24.85v11.68h-39.58v-52.08Z"></path>
      <path class="cls-2" d="m835.5,637.6h-22.02l-4.09,10.12h-15.03l22.99-52.08h14.51l23.06,52.08h-15.33l-4.09-10.12Zm-4.32-10.86l-6.7-16.67-6.7,16.67h13.39Z"></path>
      <path class="cls-2" d="m881.84,633.88h-8.03v13.84h-14.73v-52.08h23.81c14.21,0,23.14,7.36,23.14,19.27,0,7.66-3.72,13.32-10.19,16.44l11.23,16.37h-15.77l-9.45-13.84Zm.15-26.63h-8.18v15.25h8.18c6.1,0,9.15-2.83,9.15-7.59s-3.05-7.66-9.15-7.66Z"></path>
      <path class="cls-2" d="m914.12,595.64h14.73v52.08h-14.73v-52.08Z"></path>
      <path class="cls-2" d="m950.42,607.32h-16v-11.68h46.65v11.68h-15.92v40.4h-14.73v-40.4Z"></path>
      <path class="cls-2" d="m1013.21,629.04v18.67h-14.73v-18.9l-19.86-33.18h15.55l12.35,20.68,12.35-20.68h14.28l-19.94,33.4Z"></path>
    </g>
    <g>
      <path class="cls-2" d="m630.65,683.91c0,7.61-5.64,12.31-14.73,12.31h-7.81v9.99h-6.43v-34.61h14.24c9.1,0,14.73,4.65,14.73,12.31Zm-6.48,0c0-4.35-2.92-6.87-8.55-6.87h-7.52v13.75h7.52c5.64,0,8.55-2.52,8.55-6.87Z"></path>
      <path class="cls-2" d="m643.1,677.03h-11.47v-5.44h29.37v5.44h-11.47v29.17h-6.43v-29.17Z"></path>
      <path class="cls-2" d="m691.8,700.82v5.39h-25.96v-34.61h25.27v5.39h-18.84v9h16.71v5.29h-16.71v9.54h19.53Z"></path>
      <path class="cls-2" d="m708.15,671.6h6.43v29.17h18.1v5.44h-24.52v-34.61Z"></path>
      <path class="cls-2" d="m741.57,677.03h-11.47v-5.44h29.37v5.44h-11.47v29.17h-6.43v-29.17Z"></path>
      <path class="cls-2" d="m764.31,671.6h15.13c11.22,0,18.89,6.92,18.89,17.31s-7.66,17.31-18.89,17.31h-15.13v-34.61Zm14.83,29.17c7.71,0,12.71-4.7,12.71-11.87s-4.99-11.87-12.71-11.87h-8.41v23.73h8.41Z"></path>
    </g>
  </g>
  <g>
    <path class="cls-3" d="m421.5,732.71h1.7v5.76c-1.58,1.27-3.84,1.92-6.16,1.92-5.11,0-8.85-3.26-8.85-7.69s3.74-7.69,8.87-7.69c2.54,0,4.75.73,6.24,2.18l-1.1,1.01c-1.41-1.25-3.09-1.77-5.06-1.77-4.15,0-7.19,2.66-7.19,6.26s3.04,6.26,7.17,6.26c1.61,0,3.09-.32,4.39-1.17v-5.1Z"></path>
    <path class="cls-3" d="m439.68,740.26l-3.84-4.86c-.43.04-.86.07-1.34.07h-4.51v4.79h-1.77v-15.11h6.28c4.27,0,6.86,1.94,6.86,5.18,0,2.38-1.39,4.04-3.84,4.75l4.1,5.18h-1.94Zm-.1-9.93c0-2.42-1.77-3.8-5.13-3.8h-4.46v7.58h4.46c3.36,0,5.13-1.4,5.13-3.78Z"></path>
    <path class="cls-3" d="m444.08,732.71c0-4.4,3.74-7.69,8.82-7.69s8.8,3.26,8.8,7.69-3.76,7.69-8.8,7.69-8.82-3.28-8.82-7.69Zm15.85,0c0-3.61-3-6.26-7.03-6.26s-7.07,2.66-7.07,6.26,3.02,6.26,7.07,6.26,7.03-2.65,7.03-6.26Z"></path>
    <path class="cls-3" d="m488.23,725.15l-5.66,15.11h-1.87l-4.92-12.89-4.94,12.89h-1.85l-5.66-15.11h1.82l4.84,13,5.01-13h1.65l4.94,13.06,4.92-13.06h1.7Z"></path>
    <path class="cls-3" d="m521.16,725.15l-5.66,15.11h-1.87l-4.92-12.89-4.94,12.89h-1.85l-5.66-15.11h1.82l4.84,13,5.01-13h1.65l4.94,13.06,4.92-13.06h1.7Z"></path>
    <path class="cls-3" d="m524.4,725.15h1.77v15.11h-1.77v-15.11Z"></path>
    <path class="cls-3" d="m534.91,726.53h-5.9v-1.38h13.57v1.38h-5.9v13.73h-1.77v-13.73Z"></path>
    <path class="cls-3" d="m559.44,725.15v15.11h-1.75v-6.97h-10.5v6.97h-1.77v-15.11h1.77v6.74h10.5v-6.74h1.75Z"></path>
    <path class="cls-3" d="m571.19,725.15h1.77v15.11h-1.77v-15.11Z"></path>
    <path class="cls-3" d="m592.47,725.15v15.11h-1.46l-10.79-12.26v12.26h-1.77v-15.11h1.46l10.82,12.26v-12.26h1.75Z"></path>
    <path class="cls-3" d="m601.2,726.53h-5.9v-1.38h13.57v1.38h-5.9v13.73h-1.77v-13.73Z"></path>
    <path class="cls-3" d="m623.58,738.88v1.38h-11.87v-15.11h11.51v1.38h-9.73v5.38h8.68v1.36h-8.68v5.61h10.09Z"></path>
    <path class="cls-3" d="m641.78,725.15v15.11h-1.46l-10.79-12.26v12.26h-1.77v-15.11h1.46l10.81,12.26v-12.26h1.75Z"></path>
    <path class="cls-3" d="m650.51,726.53h-5.9v-1.38h13.57v1.38h-5.9v13.73h-1.77v-13.73Z"></path>
    <path class="cls-3" d="m661.02,725.15h1.77v15.11h-1.77v-15.11Z"></path>
    <path class="cls-3" d="m666.78,732.71c0-4.4,3.74-7.69,8.82-7.69s8.8,3.26,8.8,7.69-3.76,7.69-8.8,7.69-8.82-3.28-8.82-7.69Zm15.85,0c0-3.61-3-6.26-7.03-6.26s-7.07,2.66-7.07,6.26,3.02,6.26,7.07,6.26,7.03-2.65,7.03-6.26Z"></path>
    <path class="cls-3" d="m702.41,725.15v15.11h-1.46l-10.79-12.26v12.26h-1.77v-15.11h1.46l10.82,12.26v-12.26h1.75Z"></path>
    <path class="cls-3" d="m706.42,739.18c0-.67.58-1.17,1.27-1.17s1.3.5,1.3,1.17-.6,1.19-1.3,1.19-1.27-.52-1.27-1.19Z"></path>
    <path class="cls-3" d="m719.26,725.15h1.77v13.73h9.4v1.38h-11.17v-15.11Z"></path>
    <path class="cls-3" d="m745.25,738.88v1.38h-11.87v-15.11h11.51v1.38h-9.73v5.38h8.68v1.36h-8.68v5.61h10.1Z"></path>
    <path class="cls-3" d="m759.95,736.22h-9.35l-2.01,4.04h-1.84l7.67-15.11h1.75l7.67,15.11h-1.87l-2.01-4.04Zm-.65-1.29l-4.03-8.12-4.03,8.12h8.06Z"></path>
    <path class="cls-3" d="m766.63,725.15h6.83c5.37,0,8.99,3.11,8.99,7.56s-3.62,7.56-8.99,7.56h-6.83v-15.11Zm6.74,13.73c4.46,0,7.34-2.55,7.34-6.17s-2.88-6.18-7.34-6.18h-4.96v12.35h4.96Z"></path>
    <path class="cls-3" d="m815.77,725.15l-5.66,15.11h-1.87l-4.92-12.89-4.94,12.89h-1.85l-5.66-15.11h1.82l4.84,13,5.01-13h1.65l4.94,13.06,4.92-13.06h1.7Z"></path>
    <path class="cls-3" d="m819.01,725.15h1.77v15.11h-1.77v-15.11Z"></path>
    <path class="cls-3" d="m829.51,726.53h-5.9v-1.38h13.57v1.38h-5.9v13.73h-1.77v-13.73Z"></path>
    <path class="cls-3" d="m854.05,725.15v15.11h-1.75v-6.97h-10.5v6.97h-1.77v-15.11h1.77v6.74h10.5v-6.74h1.75Z"></path>
    <path class="cls-3" d="m879.83,736.22c0,2.57-2.11,4.04-6.31,4.04h-7.72v-15.11h7.24c3.74,0,5.9,1.43,5.9,3.89,0,1.73-1.03,2.87-2.57,3.43,2.16.43,3.45,1.71,3.45,3.76Zm-12.25-9.76v5.48h5.35c2.69,0,4.24-.93,4.24-2.74s-1.56-2.74-4.24-2.74h-5.35Zm10.48,9.63c0-1.97-1.61-2.83-4.56-2.83h-5.92v5.68h5.92c2.95,0,4.56-.86,4.56-2.85Z"></path>
    <path class="cls-3" d="m894.42,736.22h-9.35l-2.01,4.04h-1.84l7.67-15.11h1.75l7.67,15.11h-1.87l-2.01-4.04Zm-.65-1.29l-4.03-8.12-4.03,8.12h8.06Z"></path>
    <path class="cls-3" d="m901.09,725.15h1.77v13.73h9.4v1.38h-11.17v-15.11Z"></path>
    <path class="cls-3" d="m925.79,736.22h-9.35l-2.01,4.04h-1.84l7.67-15.11h1.75l7.67,15.11h-1.87l-2.01-4.04Zm-.65-1.29l-4.03-8.12-4.03,8.12h8.06Z"></path>
    <path class="cls-3" d="m946.49,725.15v15.11h-1.46l-10.79-12.26v12.26h-1.77v-15.11h1.46l10.81,12.26v-12.26h1.75Z"></path>
    <path class="cls-3" d="m950.47,732.71c0-4.43,3.74-7.69,8.8-7.69,2.45,0,4.65.73,6.14,2.2l-1.13,1.02c-1.37-1.25-3.05-1.79-4.96-1.79-4.05,0-7.1,2.68-7.1,6.26s3.04,6.26,7.1,6.26c1.92,0,3.6-.54,4.96-1.81l1.13,1.02c-1.49,1.47-3.69,2.22-6.16,2.22-5.04,0-8.78-3.26-8.78-7.69Z"></path>
    <path class="cls-3" d="m981.07,738.88v1.38h-11.87v-15.11h11.51v1.38h-9.74v5.38h8.68v1.36h-8.68v5.61h10.1Z"></path>
    <path class="cls-3" d="m984.03,739.18c0-.67.58-1.17,1.27-1.17s1.29.5,1.29,1.17-.6,1.19-1.29,1.19-1.27-.52-1.27-1.19Z"></path>
    <path class="cls-3" d="m526.98,756.14h-5.9v-1.38h13.57v1.38h-5.9v13.73h-1.77v-13.73Z"></path>
    <path class="cls-3" d="m551.51,754.76v15.11h-1.75v-6.97h-10.5v6.97h-1.77v-15.11h1.77v6.74h10.5v-6.74h1.75Z"></path>
    <path class="cls-3" d="m568.45,769.87l-3.84-4.86c-.43.04-.86.07-1.34.07h-4.51v4.79h-1.77v-15.11h6.28c4.27,0,6.86,1.94,6.86,5.18,0,2.38-1.39,4.04-3.84,4.75l4.1,5.18h-1.94Zm-.1-9.93c0-2.42-1.77-3.8-5.13-3.8h-4.46v7.58h4.46c3.36,0,5.13-1.4,5.13-3.78Z"></path>
    <path class="cls-3" d="m574.33,754.76h1.77v15.11h-1.77v-15.11Z"></path>
    <path class="cls-3" d="m595.33,754.76l-7.43,15.11h-1.75l-7.43-15.11h1.92l6.43,13.13,6.48-13.13h1.8Z"></path>
    <path class="cls-3" d="m609.63,768.49v1.38h-11.87v-15.11h11.51v1.38h-9.73v5.38h8.68v1.36h-8.68v5.61h10.1Z"></path>
    <path class="cls-3" d="m643.13,754.76l-5.66,15.11h-1.87l-4.92-12.89-4.94,12.89h-1.85l-5.66-15.11h1.82l4.84,13,5.01-13h1.65l4.94,13.06,4.92-13.06h1.7Z"></path>
    <path class="cls-3" d="m646.38,754.76h1.77v15.11h-1.77v-15.11Z"></path>
    <path class="cls-3" d="m656.88,756.14h-5.9v-1.38h13.57v1.38h-5.9v13.73h-1.77v-13.73Z"></path>
    <path class="cls-3" d="m681.41,754.76v15.11h-1.75v-6.97h-10.5v6.97h-1.77v-15.11h1.77v6.74h10.5v-6.74h1.75Z"></path>
    <path class="cls-3" d="m685.4,762.31c0-4.4,3.74-7.69,8.82-7.69s8.8,3.26,8.8,7.69-3.76,7.69-8.8,7.69-8.82-3.28-8.82-7.69Zm15.85,0c0-3.61-3-6.26-7.03-6.26s-7.07,2.66-7.07,6.26,3.02,6.26,7.07,6.26,7.03-2.65,7.03-6.26Z"></path>
    <path class="cls-3" d="m706.87,763.42v-8.66h1.77v8.59c0,3.58,1.87,5.22,5.13,5.22s5.16-1.64,5.16-5.22v-8.59h1.73v8.66c0,4.34-2.59,6.58-6.88,6.58s-6.91-2.25-6.91-6.58Z"></path>
    <path class="cls-3" d="m728.93,756.14h-5.9v-1.38h13.57v1.38h-5.9v13.73h-1.77v-13.73Z"></path>
    <path class="cls-3" d="m759.75,765.83c0,2.57-2.11,4.04-6.31,4.04h-7.72v-15.11h7.24c3.74,0,5.9,1.43,5.9,3.89,0,1.73-1.03,2.87-2.57,3.43,2.16.43,3.45,1.71,3.45,3.76Zm-12.25-9.76v5.48h5.35c2.69,0,4.24-.93,4.24-2.74s-1.56-2.74-4.24-2.74h-5.35Zm10.48,9.63c0-1.97-1.61-2.83-4.56-2.83h-5.92v5.68h5.92c2.95,0,4.56-.86,4.56-2.85Z"></path>
    <path class="cls-3" d="m763.66,763.42v-8.66h1.77v8.59c0,3.58,1.87,5.22,5.13,5.22s5.16-1.64,5.16-5.22v-8.59h1.73v8.66c0,4.34-2.59,6.58-6.88,6.58s-6.91-2.25-6.91-6.58Z"></path>
    <path class="cls-3" d="m794.27,769.87l-3.84-4.86c-.43.04-.86.07-1.34.07h-4.51v4.79h-1.77v-15.11h6.28c4.27,0,6.86,1.94,6.86,5.18,0,2.38-1.39,4.04-3.84,4.75l4.1,5.18h-1.94Zm-.1-9.93c0-2.42-1.77-3.8-5.13-3.8h-4.46v7.58h4.46c3.36,0,5.13-1.4,5.13-3.78Z"></path>
    <path class="cls-3" d="m814.17,754.76v15.11h-1.46l-10.79-12.26v12.26h-1.77v-15.11h1.46l10.81,12.26v-12.26h1.75Z"></path>
    <path class="cls-3" d="m818.16,762.31c0-4.4,3.74-7.69,8.82-7.69s8.8,3.26,8.8,7.69-3.76,7.69-8.8,7.69-8.82-3.28-8.82-7.69Zm15.85,0c0-3.61-3-6.26-7.03-6.26s-7.07,2.66-7.07,6.26,3.02,6.26,7.07,6.26,7.03-2.65,7.03-6.26Z"></path>
    <path class="cls-3" d="m839.62,763.42v-8.66h1.77v8.59c0,3.58,1.87,5.22,5.13,5.22s5.16-1.64,5.16-5.22v-8.59h1.73v8.66c0,4.34-2.59,6.58-6.88,6.58s-6.91-2.25-6.91-6.58Z"></path>
    <path class="cls-3" d="m861.69,756.14h-5.9v-1.38h13.57v1.38h-5.9v13.73h-1.77v-13.73Z"></path>
    <path class="cls-3" d="m869.99,768.79c0-.67.58-1.17,1.27-1.17s1.29.5,1.29,1.17-.6,1.19-1.29,1.19-1.27-.52-1.27-1.19Z"></path>
  </g>
</svg>