<?xml version="1.0" encoding="UTF-8"?>
<svg xmlns="http://www.w3.org/2000/svg" viewBox="500 220 380 360">
  <defs>
    <linearGradient id="g1" x1="703.11" y1="225.69" x2="703.11" y2="687.22" gradientUnits="userSpaceOnUse">
      <stop offset="0" stop-color="#ea9c2d"></stop>
      <stop offset="1" stop-color="#c63a13"></stop>
    </linearGradient>
  </defs>
  <path fill="#FAF8F5" d="m703.77,356.9c11.81.26,20.57,9.65,20.35,21.8-.21,11.56-10.2,21.25-21.55,20.93-11.32-.33-20.71-10.24-20.47-21.62.25-12.08,9.79-21.38,21.67-21.11Z"></path>
  <path fill="#FAF8F5" d="m772.73,344.05l-4.77,9.83s-15.77-6.54-21.48-22.69c-.04-.06-.06-.13-.08-.19-.08-.23-.15-.45-.23-.7-.45-1.3-.88-2.65-1.3-3.98-.17-.55-.32-1.07-.49-1.6-4.42-14.98-6.97-31.28-6.97-31.28,14.53,16.13,27.54,32.27,35.32,50.6Z"></path>
  <path fill="#FAF8F5" d="m772.73,344.05c-7.78-18.33-20.79-34.47-35.32-50.6,0,0,2.56,16.3,6.97,31.28.17.53.32,1.05.49,1.6.34,1.11.7,2.2,1.07,3.29.08.23.15.47.23.7.08.24.15.47.23.7.02.06.04.13.08.19,10.34,31.78,4.47,59.23-21.01,82.36-6.95,6.32-12.39,14.3-18.1,21.07-.29-.43-.58-.93-.88-1.45-1.32-2-4.25-5.92-9.56-10.72-7.96-6.73-16.04-13.32-24.29-19.69-18.61-14.4-19.42-38.64-1.18-53.34,9.13-7.37,19.3-13.5,28.33-20.99,16.41-13.65,22.37-33.04,17.01-52.5-9.23-32.74-51.44-45.94-51.44-45.94.96,1.28,1.86,2.54,2.84,3.76,10.64,13.46,11.9,28.06,5.15,43.57-5.49,12.63-14.72,22.4-24.36,31.93-11.26,11.15-23.06,21.93-32.95,34.23-12.71,15.79-17.61,34.47-13.5,54.79.63,3.09,1.44,6.01,2.37,8.83,10.5,29.78,48.7,47.42,48.7,47.42-12.69-16.54-23.91-33.72-24.94-55.37-1.05-22.25,10.28-42.85,25.77-53.81-1.37,2.09-2.39,3.57-3.36,5.09-12.2,19.34-13.38,39.23-2.14,59.26,3.8,6.77,8.46,13.14,13.35,19.17,18.93,23.33,30.84,49.34,32.48,79.71.49,9,1.95,17.95,3.16,28.8,1.15-3.23,1.79-4.64,2.16-6.11,4.62-18.06,12.69-34.32,24.68-48.7,11.01-13.19,21.9-26.52,32.31-40.19,12.97-16.99,22.18-35.67,23.16-57.55.68-15.02-2.2-28.4-7.46-40.79Z"></path>
  <path fill="#FAF8F5" d="m626.22,552.41c.39.19.78.38,1.17.56.75.35,1.51.68,2.27,1.02,34.47,15.07,64.93,4.67,64.93,4.67-19.3-8.58-27.85-29.09-27.85-29.09h0c-1.82-3.82-3.4-7.83-5.09-11.64-12.91-29.09-37.99-52.54-67.87-63.49,3.88,15.34,11.48,29.73,21.96,41.6-15.61-7.76-25.65-23.14-36.92-36.44-5.92-6.98-12.66-13.52-20.56-18.21-3.95-2.35-8.21-4.23-12.7-5.26-1.91-.44-12.15-2.5-12.61.44,25.45,19.79,31.87,55.33,50.84,81.4,10.84,14.9,25.78,26.44,42.44,34.44Z"></path>
  <path fill="#FAF8F5" d="m768.56,552.41c-.39.19-.78.38-1.17.56-.75.35-1.51.68-2.27,1.02-34.47,15.07-64.93,4.67-64.93,4.67,19.3-8.58,27.85-29.09,27.85-29.09h0c1.82-3.82,3.4-7.83,5.09-11.64,12.91-29.09,37.99-52.54,67.87-63.49-3.88,15.34-11.48,29.73-21.96,41.6,15.61-7.76,25.65-23.14,36.92-36.44,5.92-6.98,12.66-13.52,20.56-18.21,3.95-2.35,8.21-4.23,12.7-5.26,1.91-.44,12.15-2.5,12.61.44-25.45,19.79-31.87,55.33-50.84,81.4-10.84,14.9-25.78,26.44-42.44,34.44Z"></path>
</svg>